HIERARCHY
ROOT Hips
{
	OFFSET -14.64140 90.27770 -84.91600
	CHANNELS 6 Xposition Yposition Zposition Zrotation Xrotation Yrotation
	JOINT Spine
	{
		OFFSET 0.00000 13.20850 -1.60436
		CHANNELS 3 Zrotation Xrotation Yrotation
		JOINT Spine1
		{
			OFFSET 0.00000 8.61716 0.00000
			CHANNELS 3 Zrotation Xrotation Yrotation
			JOINT Spine2
			{
				OFFSET 0.00000 8.61717 0.00000
				CHANNELS 3 Zrotation Xrotation Yrotation
				JOINT Spine3
				{
					OFFSET 0.00000 8.61717 0.00000
					CHANNELS 3 Zrotation Xrotation Yrotation
					JOINT Neck
					{
						OFFSET 0.00000 11.07920 1.10792
						CHANNELS 3 Zrotation Xrotation Yrotation
						JOINT Neck1
						{
							OFFSET 0.00000 7.08032 0.00000
							CHANNELS 3 Zrotation Xrotation Yrotation
							JOINT Head
							{
								OFFSET 0.00000 7.08031 0.00000
								CHANNELS 3 Zrotation Xrotation Yrotation
								End site
								{
									OFFSET 0.00000 0.00000 0.00000
								}
							}
						}
					}
					JOINT RightShoulder
					{
						OFFSET -0.01000 7.91373 5.19711
						CHANNELS 3 Zrotation Xrotation Yrotation
						JOINT RightArm
						{
							OFFSET -18.41580 0.00000 0.00000
							CHANNELS 3 Zrotation Xrotation Yrotation
							JOINT RightForeArm
							{
								OFFSET -29.11090 0.00000 0.00000
								CHANNELS 3 Zrotation Xrotation Yrotation
								JOINT RightHand
								{
									OFFSET -24.65040 0.00000 0.00000
									CHANNELS 3 Zrotation Xrotation Yrotation
									JOINT RightHandThumb1
									{
										OFFSET -5.35114 -0.85590 3.97906
										CHANNELS 3 Zrotation Xrotation Yrotation
										JOINT RightHandThumb2
										{
											OFFSET -4.52789 0.00000 0.00000
											CHANNELS 3 Zrotation Xrotation Yrotation
											JOINT RightHandThumb3
											{
												OFFSET -2.46976 0.00000 0.00000
												CHANNELS 3 Zrotation Xrotation Yrotation
												End site
												{
													OFFSET 0.00000 0.00000 0.00000
												}
											}
										}
									}
									JOINT RightHandIndex1
									{
										OFFSET -14.26970 0.00000 2.88139
										CHANNELS 3 Zrotation Xrotation Yrotation
										JOINT RightHandIndex2
										{
											OFFSET -5.48836 0.00000 0.00000
											CHANNELS 3 Zrotation Xrotation Yrotation
											JOINT RightHandIndex3
											{
												OFFSET -3.01859 0.00000 0.00000
												CHANNELS 3 Zrotation Xrotation Yrotation
												End site
												{
													OFFSET 0.00000 0.00000 0.00000
												}
											}
										}
									}
									JOINT RightHandMiddle1
									{
										OFFSET -14.26970 0.00000 -0.09147
										CHANNELS 3 Zrotation Xrotation Yrotation
										JOINT RightHandMiddle2
										{
											OFFSET -6.17441 0.00000 0.00000
											CHANNELS 3 Zrotation Xrotation Yrotation
											JOINT RightHandMiddle3
											{
												OFFSET -3.56743 0.00000 0.00000
												CHANNELS 3 Zrotation Xrotation Yrotation
												End site
												{
													OFFSET 0.00000 0.00000 0.00000
												}
											}
										}
									}
									JOINT RightHandRing1
									{
										OFFSET -12.69180 0.00000 -3.06433
										CHANNELS 3 Zrotation Xrotation Yrotation
										JOINT RightHandRing2
										{
											OFFSET -5.62556 0.00000 0.00000
											CHANNELS 3 Zrotation Xrotation Yrotation
											JOINT RightHandRing3
											{
												OFFSET -3.56744 0.00000 0.00000
												CHANNELS 3 Zrotation Xrotation Yrotation
												End site
												{
													OFFSET 0.00000 0.00000 0.00000
												}
											}
										}
									}
									JOINT RightHandPinky1
									{
										OFFSET -11.11390 0.00000 -6.03719
										CHANNELS 3 Zrotation Xrotation Yrotation
										JOINT RightHandPinky2
										{
											OFFSET -4.52789 0.00000 0.00000
											CHANNELS 3 Zrotation Xrotation Yrotation
											JOINT RightHandPinky3
											{
												OFFSET -2.46976 0.00000 0.00000
												CHANNELS 3 Zrotation Xrotation Yrotation
												End site
												{
													OFFSET 0.00000 0.00000 0.00000
												}
											}
										}
									}
								}
							}
						}
					}
					JOINT LeftShoulder
					{
						OFFSET 0.01000 7.91373 5.19711
						CHANNELS 3 Zrotation Xrotation Yrotation
						JOINT LeftArm
						{
							OFFSET 18.41580 0.00000 0.00000
							CHANNELS 3 Zrotation Xrotation Yrotation
							JOINT LeftForeArm
							{
								OFFSET 29.11090 0.00000 0.00000
								CHANNELS 3 Zrotation Xrotation Yrotation
								JOINT LeftHand
								{
									OFFSET 24.65040 0.00000 0.00000
									CHANNELS 3 Zrotation Xrotation Yrotation
									JOINT LeftHandThumb1
									{
										OFFSET 5.35114 -0.85590 3.97906
										CHANNELS 3 Zrotation Xrotation Yrotation
										JOINT LeftHandThumb2
										{
											OFFSET 4.52789 0.00000 0.00000
											CHANNELS 3 Zrotation Xrotation Yrotation
											JOINT LeftHandThumb3
											{
												OFFSET 2.46977 0.00000 0.00000
												CHANNELS 3 Zrotation Xrotation Yrotation
												End site
												{
													OFFSET 0.00000 0.00000 0.00000
												}
											}
										}
									}
									JOINT LeftHandIndex1
									{
										OFFSET 14.26970 0.00000 2.88139
										CHANNELS 3 Zrotation Xrotation Yrotation
										JOINT LeftHandIndex2
										{
											OFFSET 5.48836 0.00000 0.00000
											CHANNELS 3 Zrotation Xrotation Yrotation
											JOINT LeftHandIndex3
											{
												OFFSET 3.01859 0.00000 0.00000
												CHANNELS 3 Zrotation Xrotation Yrotation
												End site
												{
													OFFSET 0.00000 0.00000 0.00000
												}
											}
										}
									}
									JOINT LeftHandMiddle1
									{
										OFFSET 14.26970 0.00000 -0.09147
										CHANNELS 3 Zrotation Xrotation Yrotation
										JOINT LeftHandMiddle2
										{
											OFFSET 6.17440 0.00000 0.00000
											CHANNELS 3 Zrotation Xrotation Yrotation
											JOINT LeftHandMiddle3
											{
												OFFSET 3.56744 0.00000 0.00000
												CHANNELS 3 Zrotation Xrotation Yrotation
												End site
												{
													OFFSET 0.00000 0.00000 0.00000
												}
											}
										}
									}
									JOINT LeftHandRing1
									{
										OFFSET 12.69180 0.00000 -3.06433
										CHANNELS 3 Zrotation Xrotation Yrotation
										JOINT LeftHandRing2
										{
											OFFSET 5.62556 0.00000 0.00000
											CHANNELS 3 Zrotation Xrotation Yrotation
											JOINT LeftHandRing3
											{
												OFFSET 3.56744 0.00000 0.00000
												CHANNELS 3 Zrotation Xrotation Yrotation
												End site
												{
													OFFSET 0.00000 0.00000 0.00000
												}
											}
										}
									}
									JOINT LeftHandPinky1
									{
										OFFSET 11.11390 0.00000 -6.03719
										CHANNELS 3 Zrotation Xrotation Yrotation
										JOINT LeftHandPinky2
										{
											OFFSET 4.52789 0.00000 0.00000
											CHANNELS 3 Zrotation Xrotation Yrotation
											JOINT LeftHandPinky3
											{
												OFFSET 2.46976 0.00000 0.00000
												CHANNELS 3 Zrotation Xrotation Yrotation
												End site
												{
													OFFSET 0.00000 0.00000 0.00000
												}
											}
										}
									}
								}
							}
						}
					}
					JOINT pCube4
					{
						OFFSET 0.00000 10.91090 1.10792
						CHANNELS 3 Zrotation Xrotation Yrotation
						End site
						{
							OFFSET 0.00000 0.00000 0.00000
						}
					}
				}
			}
		}
	}
	JOINT RightUpLeg
	{
		OFFSET -9.98441 0.00000 0.00000
		CHANNELS 3 Zrotation Xrotation Yrotation
		JOINT RightLeg
		{
			OFFSET 0.00000 -42.11790 0.00000
			CHANNELS 3 Zrotation Xrotation Yrotation
			JOINT RightFoot
			{
				OFFSET 0.00000 -45.00020 -0.00001
				CHANNELS 3 Zrotation Xrotation Yrotation
				JOINT RightForeFoot
				{
					OFFSET 0.00000 -3.74820 0.00000
					CHANNELS 3 Zrotation Xrotation Yrotation
					JOINT RightToeBase
					{
						OFFSET 0.00000 0.06325 14.43120
						CHANNELS 3 Zrotation Xrotation Yrotation
						End site
						{
							OFFSET 0.00000 0.00000 0.00000
						}
					}
				}
			}
		}
	}
	JOINT LeftUpLeg
	{
		OFFSET 9.98441 0.00000 0.00000
		CHANNELS 3 Zrotation Xrotation Yrotation
		JOINT LeftLeg
		{
			OFFSET 0.00000 -42.11800 0.00000
			CHANNELS 3 Zrotation Xrotation Yrotation
			JOINT LeftFoot
			{
				OFFSET 0.00000 -45.00070 0.00000
				CHANNELS 3 Zrotation Xrotation Yrotation
				JOINT LeftForeFoot
				{
					OFFSET 0.00000 -3.74824 0.00000
					CHANNELS 3 Zrotation Xrotation Yrotation
					JOINT LeftToeBase
					{
						OFFSET 0.00000 0.06325 14.43110
						CHANNELS 3 Zrotation Xrotation Yrotation
						End site
						{
							OFFSET 0.00000 0.00000 0.00000
						}
					}
				}
			}
		}
	}
}
MOTION
Frames: 4
Frame Time: 0.050000
-0.02210428858032862 -0.009902214204956822 0.0375138596861092 -0.03802175998198282 -0.0493092466579338 -0.008728205138909017 -2.6530664604266865 1.1722958720731298 -0.7418134651490764 -0.9846505681963128 3.6330806784429717 0.42936804067515716 -1.204897577772264 -1.9898618198534652 -0.9320912876977627 -0.5232216778149122 0.16706621689622564 -0.7873954523756101 -0.6791496446345782 13.61998539742795 1.3405377096048363 -0.28992085383894833 0.6783765954943283 1.0192161048424346 -0.7294410846896218 -13.828640401549183 0.10141499203939089 -7.029370044452088 2.458761413978214 -12.746219888988582 63.92577672000975 5.361881477313219 24.501082832495747 17.598258534928785 -4.280244271540394 75.14368071387194 17.554365333193818 -0.4040740847813029 -3.5128801387742965 4.505198189780564 -0.14359315883737445 -1.638525169874869 0.0007732632774675187 0.036929384043810645 -56.23010598052695 0.043521403519870584 -0.024363927628907545 -56.239422620682305 -38.76756285798819 -0.04839065016422325 -0.04623469161653168 0.031439064474415704 -0.0325473444158658 0.02206335534087572 0.04725286276063284 0.00038934896233348154 -0.025917518087836756 -36.708794617758535 0.0034424278779447157 -0.002787074871146656 0.0019186718841647692 0.001975099373757637 0.03544669327615378 0.04146041963411936 0.012371814073994387 0.02549301015824358 -19.733587483781946 0.042630352988044906 -0.02853472817639984 -0.030693022880569253 0.029005075284991678 -0.011674421151769754 0.00345845813217927 -0.008525582601830438 -0.017597767728818853 24.01247309534588 -0.02929521490566592 0.009051042359562498 28.82593103168704 0.01840714828366169 -0.000587325989284549 28.84086862551708 0.023648833124276195 -0.04814491306141097 8.847854114431572 1.9679227625961544 12.011480827688084 -63.723237487528436 13.948476192298367 -24.142904487988613 -38.10446210669034 3.393866606804006 -77.87640943410919 -13.048531380770127 -0.2338885855606972 1.070578115800627 -0.47019742347650734 0.02537279911330132 -8.124033422211603 -0.040228918222980185 -0.006899974205795353 44.59328640468459 0.018425791819712854 0.03512216339079218 44.61038078600248 12.501099687729631 0.01814245941916143 -0.00609229679213925 0.04428259738013932 -0.030308335721296313 0.03407933242167135 0.006316700890677525 -0.04385867889260491 -0.007415637057065828 11.08343101501582 -0.007404301415791431 -0.03568699370422643 0.03326844014911412 -0.019887935694813768 0.013004107869412774 0.03863118691034921 0.010541207394803735 0.00917799140635685 4.792866411254116 0.020263549515153648 -0.04855412407986168 0.04740280409338248 0.022601111819988515 -0.047400442323810965 -0.01493275247422776 -0.029881266369614818 0.01672017782958851 -5.611686317529741 -0.01542490939294838 -0.01782985804551896 -6.683212707415432 -0.023215428454295813 -0.026188246300222155 -6.718996189122799 -0.00990212394446928 0.0215125708362174 -0.033309039321479876 -0.01832259832194815 0.026844889173977187 8.030441789122444 3.498999347690777 -19.22239787588777 0.010627703879399167 10.386298923193092 -0.020996784640699494 -5.619026364073894 -15.69083899245896 3.2332568330411044 -0.010463807028955904 -0.046526495172394794 0.03065223851881162 -0.02106161762481743 4.709015102191025 0.03629513373719794 12.428154621296612 -8.235601826124329 6.865382258389937 0.01612841818290652 46.428533730058106 -0.012276360559702187 -4.31794080615004 -14.77467920100786 -3.7879373504713536 0.0010507210724707574 0.00044207185216215084 0.010753435161079405 0.02648603921583974 -10.752135618644587 -0.025230287041902496 
0.007290044480900884 -0.005624501149973052 -0.0017578262969395611 -0.015650245735028347 0.047644933075612156 -0.016592541427021955 -2.682017878685699 1.2066412575872858 -0.7223429314667846 -1.054681509310024 3.687540716529058 0.43286965211572004 -1.2328573957194982 -1.9469252962108023 -1.0469811221803411 -0.47293720864195704 0.26158035567121124 -0.8288032119025257 -0.6884353915570273 13.435236134441661 1.3823150218230402 -0.3004354464474913 0.5449085557530934 0.9676942678701019 -0.7459649211814716 -14.009267713504872 0.10864215261602769 -6.8889546107912505 2.3734675254704682 -12.789356830173697 63.656406798875665 6.373097848549142 23.315051554460588 18.955427859426685 -5.3612295731233095 72.60341522673166 17.850854192787125 -0.3381762468686096 -3.5276623475306335 4.519928603524481 -0.0792137188674753 -1.5941662583922558 -0.00822334309748572 0.0046921925359874415 -56.23462451498054 -0.041237048145752686 -0.01568347006397714 -56.20435274303103 -38.76507003623777 0.002485165237802112 -0.015370270546980857 0.015046347978276012 0.03750054385484865 -0.005454836806164331 -0.0031759991794315604 -0.037823168063524835 -0.009137548627134378 -36.68175794988457 0.011107644985459528 0.03600585823533432 -0.008238041878724659 0.0060512087804430225 0.00836298616305865 -0.010025737820933842 0.03569908733850828 0.014282244806935745 -19.799952899955475 -0.01737391094552609 -0.01686054329688999 -0.040154119989931195 0.04630307877083905 0.02846105366400666 0.020532913183402605 -0.019963014321760668 0.0323131997571001 24.06163494774432 -0.0390508370964009 -0.04362403593891393 28.840707479267707 0.005234528430928419 0.00389415465870262 28.900642881405936 0.004004140108257604 -0.04416479024181577 8.530447131173585 1.82440834366048 11.946852982991265 -64.12261165164723 14.397883070893274 -22.72059570207719 -42.79191684136809 4.612820362991437 -76.54632903722268 -13.084000587331953 0.5123004332878813 0.6721830429865847 -0.4882669275843729 0.04048063179023795 -8.113175199664934 -0.016054443086546185 -0.042782275595335595 44.566354291688214 -0.02111052113715479 0.0412911796431545 44.54251932378753 12.446529561937623 -0.014472417323014377 0.01221104172880022 0.022187363122515343 0.005307748539564349 -0.021314803726687065 -0.00355272096157613 -0.033886818601357324 -0.0020723510691881284 11.103830297282402 -0.01539144679910523 -0.020357500067125084 -5.659503098653419e-05 -0.008092545544395941 0.0382542504738657 -0.014816712501861487 -0.044907468082113995 -0.012867813419848093 4.741748505475767 -0.0075786248074683074 -0.00047027130523887164 0.008904479138173032 0.003102147753849988 0.00264965547145261 -0.04536878853980702 0.030494100297770974 -0.020610199266716395 -5.631104436863115 -0.042058149670321385 0.02513169022461084 -6.743367134006566 0.04865275930767563 0.0019400587477253286 -6.682090700383234 0.014524794140096815 0.04456487108555641 -0.039923995227216784 0.014118655953403588 0.010621923574590462 8.031197481464947 3.4727909785214504 -19.18788905890375 0.033077403411035614 10.437353134805257 -0.02951539985143262 -5.573012189412242 -15.671269110451227 3.1873151982422736 -0.041940616995484965 -0.0030826310552223854 0.00859620723777811 -0.013197607845235146 4.744974909042738 -0.01696248977926196 12.409757060086761 -8.275781500188186 6.841924263308131 0.0402131303969454 46.41291308123291 0.024605094574212016 -4.298053779220699 -14.783308438839752 -3.8503386396299306 -0.0018739915792682033 -0.023294292780825822 0.01030497097220628 0.047915616509369596 -10.753118370349629 -0.018806679831724203 
-0.04517032942212948 -0.03739013582465711 0.011933054789213764 0.012042267553126734 -0.036244584154579915 0.026904450100600382 -2.7542900695429102 1.3522409590671203 -0.6933130104849098 -1.036421083608827 3.7511535109775553 0.3596229732655175 -1.245339932295874 -1.9339584095315632 -1.068018122098594 -0.351157158358375 0.29079479925496055 -0.8539790937195831 -0.5883933767423735 13.186388850478009 1.2574163528625337 -0.2874283657700199 0.3431771938776559 0.5558560486195177 -0.6945831215446451 -14.317255972928463 0.14416470011242832 -6.598212674580863 2.2623269997750626 -12.832833894239839 63.436150836451255 7.209042455293987 21.678427373556357 21.692856605457806 -6.1310753341379645 69.8108872825849 18.266791983012713 -0.3299351748958397 -3.5197659508539854 4.532079426565317 -0.14982137148241506 -1.5935407036977456 -0.02226558118392573 0.01792030468267328 -56.26596720622085 0.03809247369220944 0.035958369693957104 -56.21206286948915 -38.78979653502269 -0.034923815506619334 -0.03085205807829191 -0.0015518671658839233 0.0029393642460329656 0.02931170236976046 0.025676562634087227 -0.04048812385261762 -0.019579175179157474 -36.6916609183855 0.017269897175813963 -0.01834648418971113 -0.020160242646203703 -0.03051126755404448 -0.03368756674141631 -0.008431838633215394 0.007318614680891735 0.049872853914317526 -19.761372761480395 -0.047357356987876124 -0.024813859809817717 -0.04954025667092273 -0.006917226123224591 0.03868176444737527 0.01590627520442319 0.0029196672533569686 0.008193002990218488 24.091680665154154 0.016447521829010985 -0.020617617988562285 28.913558682536745 0.03899094709660756 0.044644478945275304 28.91193829978482 0.049023983570046795 -0.026427307865387304 7.970240781457534 1.7586951873755798 11.948465722506295 -64.65240338718868 14.801303476539353 -20.286480135665027 -46.184053061720576 4.843029169588269 -74.42475355334359 -12.92838003654393 1.1364410618916045 0.3033993055275995 -0.44564956565094527 0.08823985769080542 -8.098481517801702 -0.022303563746380577 0.025263813140261476 44.56162078974348 -0.034363752826846505 -0.03085361619373906 44.5396941205592 12.47776589158053 0.043792269378552164 0.038419258875900524 -0.027868805576525664 0.010590940766940225 0.04700362316333412 0.004872891778431152 0.028871231367678538 -0.018969022969297547 11.067552758630713 0.049777894918855585 -0.04703803554649042 -0.04991191382531483 0.03984231034192763 0.012865120317722271 0.019081514535659854 -0.049695048424750275 0.04289432893955972 4.745610944384285 0.03575129509502492 -0.03156123109777528 -0.017163634558105215 -0.025550202847389777 0.04012875456948207 -0.01076285722963322 0.018858684199114635 0.047329982125268684 -5.607000647109317 -0.028218881250453846 0.04146378521160238 -6.749379424033134 -0.012163883123079245 0.03414520666511858 -6.730519882954748 -0.016498319382241562 0.041900414487987606 0.014348119315708561 -0.0015103371593481036 -0.021049381164469798 8.07560815732122 3.475043426881106 -19.243393020143433 0.023091054783136566 10.363406947976484 0.0126057599926097 -5.593886714508287 -15.703603399560572 3.195318126475419 -0.030829311954160228 -0.01840956877310488 0.03438363334202486 -0.013178953640649301 4.7062267926446495 0.01900809201902408 12.462231963148977 -8.229568609407817 6.8601953831682065 0.046665233184092214 46.33777616903288 -0.01356437298626945 -4.295060619919937 -14.76866038312079 -3.8201013927320635 0.03719017790055084 0.03375754474158114 0.000616292460400521 0.028155812586084947 -10.695980019761683 -0.006876191872773057 
0.04714905954243929 -0.0011308826942168146 0.03205267129214836 -0.03053548782853832 -0.026197801709885917 0.004147890314876949 -2.7194641202955125 1.4990536383078734 -0.7003902988316182 -1.0074434427405443 3.7812772620675648 0.37821855031363333 -1.2560179299287373 -1.8955227042250224 -1.0067313015623445 -0.2677904724135621 0.3343386514232949 -0.8243301608930329 -0.5437007279285329 13.031035822313005 0.8988729398452042 -0.35026259465118936 0.18728336767330006 -0.3268095168495676 -0.6180042125449807 -14.565324160842156 0.03859339065736074 -6.483215639040674 2.143531662807468 -12.99569720840047 63.410438127095745 7.633878793833564 20.387985175767696 23.898879975810278 -6.821634033512972 67.44161999918472 18.38007918166637 -0.2881081888045221 -3.486435059162509 4.4841271206779325 -0.14811046014448748 -1.5873771901748999 0.029173146835487034 0.03536544364668888 -56.228486406152165 0.0020825725794183935 -0.03402852708396176 -56.260984912114985 -38.774958710174154 -0.047355293931027734 0.008873666382384345 -0.02113569972209572 0.02350539477737354 0.01732058080390924 -0.013592348758872087 -0.023581938766533975 0.0455805774352747 -36.7166361570207 0.00489456961831546 0.0048556227694873735 0.04205270252920606 0.011567291237538378 -0.03933703465606189 0.04483006634963752 0.03312733344718372 0.01588706355108695 -19.76395634048045 -0.004707003427627212 -0.03316815730732965 0.042677675542070775 -0.04811332120935727 0.01573672328515182 -0.03173739145430165 -0.01856587195023434 -0.03840029441385962 24.09147012130434 -0.04697157411661948 -0.01429556399828358 28.885521901040004 0.027467242126823756 -0.037900101547852644 28.82121007426143 -0.011779055514796457 0.028476715317188598 7.442649613440098 1.6250979474698675 11.994535759714712 -65.18638154095099 15.71835105359376 -17.4004607347561 -45.53371567862009 3.8034203981875803 -70.58486673861317 -12.57906460804535 1.797834928179882 -0.005232105993231172 -0.4328996987906705 0.08669721627035049 -8.14678702637879 0.042121895305470704 0.006456434241850979 44.579224573688975 -0.006630844620970671 0.0016498923691356364 44.596719215559695 12.497024071945905 0.03891832251914014 -0.015186455002817605 -0.03881114273182236 0.011346891474954728 -0.005866575648524667 -0.039685286086406424 -0.0025093005700962787 0.009617891491590896 11.145992223339622 -0.025511070145651685 0.03948635142538181 0.04863497045582481 0.03217986915745941 0.00732172712945178 0.0006581720437150259 0.003895492095953583 0.004571683191258902 4.8196751359972545 -0.025210191357385597 -0.006204749096158538 -0.003499142501353812 -0.047258825394364 -0.022899063803530722 -0.046716116451982995 -0.02929981580597849 0.012582234200909977 -5.594132808309072 -0.026684685742821943 -0.03092257031568172 -6.674814400660215 0.003312429901590792 0.0034821470316376752 -6.694668825211244 0.035609826362782135 0.01867937971564913 -0.04887023467611285 0.033300111037581806 -0.030147648311881728 8.062798132328048 3.5253456182169036 -19.255547944816254 0.02062889911284955 10.423120292667285 -0.004834249063935335 -5.625826357086595 -15.692334480056523 3.2149887646634148 0.006955973873153337 -0.009761938037225826 -0.005371687738275879 0.005880798920100109 4.649167771302282 -0.04245864353945814 12.47561938030093 -8.285664870578016 6.875144772544412 -0.03477206300301743 46.42405238208036 -0.007874945981468272 -4.315246995982812 -14.72491254451505 -3.8824437667606824 0.018849906128101737 0.03682684775109563 0.031178521727696938 -0.005375436409971702 -10.706215977197704 -0.027293001712696087 
